<svg viewBox="0 0 560 1e3"><g data-transform="boob_right" id="g40"><path id="path40" d="m227.36893 264.61554c-2.61423.3458-6.96336-1.38205-9.30787-3.33897.012-.49723-.69413-1.9432-1.08889-4.18892-.43364-2.46694-.56261-5.75684-.62102-6.47453-.32601-4.00584.87765-11.18739 3.52532-15.55592 1.11335-1.83697 3.05341-3.91071 5.03099-5.53553 2.3859-1.96031 4.84655-3.3578 6.23963-4.08456.94978-.49549 2.65828-1.38529 4.05535-2.05724 1.06574-.51259 2.158-.99205 2.88493-1.38737 4.33661-1.75426 6.29366 1.3965 8.21593 3.07674 2.62687 2.29611 6.30171 16.97821 5.30161 21.04728-2.47171 10.05652-16.07378 17.41938-24.23598 18.49902z" class="areola"/></g><g data-transform="boob_left" id="g41"><path class="areola" d="m311.93114 209.60903c-3.4129-.14934-12.46585 2.87806-15.89012 4.73667-8.1313 4.41346-14.72935 15.33267-14.68555 21.42969.0261 3.63818 1.36827 12.47621 6.67773 17.58789 4.59873 4.42741 17.62802 7.99919 22.39844 8.52539 6.23627.68789 15.84349-.0733 21.75-3.99023 5.733-3.80185 10.23166-12.79714 10.4375-18.08008.42339-10.86682-5.76647-21.25197-11.56253-24.84793-5.93897-3.68463-13.64438-5.12155-19.12547-5.3614z" style="fill-opacity:1;mix-blend-mode:normal;stroke-width:.96374" id="path114335"/></g></svg>