<svg viewBox="0 0 560 1e3"><g data-transform="boob_right" id="g114342"><path id="path114342" d="m149.34384 362.1953c-1.56849-4.04791-4.56579-10.83357-6.27701-17.53603-1.96618-7.7011-3.04922-19.92409-2.80613-23.11967 1.189-15.63014 3.61887-25.44483 8.72966-34.45677 3.4325-6.05258 8.81527-12.14469 22.00724-20.32726 4.21616-2.61515 12.23733-6.94113 19.11527-10.61445 4.80512-2.56629 8.55452-4.67829 12.16854-6.24125 5.09816-3.09598 4.36277-4.70875 9.00996-.64671 2.58371 2.25838 7.4526 10.52598 4.65756 23.61093-.53518 1.55233-2.32345 5.8056-2.84832 7.43229-1.08365 3.35851-2.81006 10.2309-3.19248 13.77012-.5126 4.744-.47209 7.48837-.8376 11.62085-.76512 8.65029.81256 15.96903.96063 17.0979-1.6539 28.1871-27.20692 50.33123-60.68732 39.41005z" class="areola"/></g><g data-transform="boob_left" id="g114343"><path class="areola" d="m297.2806 366.2163c-58.20175-2.67041-76.13701-48.00432-76.61285-76.70267-.36034-21.73287 28.44396-63.26348 81.36075-65.95069 33.27339-1.68968 84.99965 23.87952 86.09825 59.69307 1.35635 44.21616-15.48821 86.41786-90.84615 82.96029z" id="path114343"/></g></svg>