<svg viewBox="0 0 560 1e3"><g id="g1" data-transform="boob_right"><path id="path1" d="m245.73171 227.50854c4.35139-6.00359 12.37697 8.09397 10.90852 15.50082-1.45635 7.34581-6.52179 14.5872-12.53857 13.65244-.50518-.38309-2.27348-.52818-4.71183-1.98998-2.24561-1.34626-3.75159-2.80453-4.29461-3.38089-1.18097-1.25349-2.23568-3.05902-2.68944-3.9258-.67954-1.29806-1.54386-4.41652-1.59018-5.79442-.0756-2.24863 1.83567-4.51422 4.29008-6.57631 1.0095-.84815 2.57255-1.9734 4.02722-2.86384.62477-.38244 1.88197-1.1582 3.02509-1.7466.38051-.19586 1.53606-.79399 2.27852-1.09355.0281-.0832.17423-.33518.2486-.43215.23748-.47978.95069-1.27338 1.0466-1.34972z" class="areola"/></g><g id="g2" data-transform="boob_left"><path id="path2" d="m315.67542 255.57222c-3.3515-.0271-12.00855-1.33264-16.47516-4.24829-5.48855-3.58272-6.66544-9.01236-6.73242-12.63123-.0528-2.85113 2.90149-8.51863 5.76772-11.26917 4.99215-4.79065 13.69469-5.98469 18.96931-5.95513 8.04554.0451 24.07644 10.10381 22.76683 17.69818-.22919 1.32907-.72778 3.62575-1.73206 5.57032-1.08319 2.09737-2.48772 4.03558-4.42932 5.41328-2.89058 2.05107-13.32156 5.46095-18.1349 5.42204z" class="areola"/></g></svg>