<svg viewBox="0 0 560 1e3"><g id="g114337" data-transform="boob_right"><path class="areola" d="m196.11248 284.50939c-.9924-5.64747-1.764-8.76296-1.7487-12.89473.004-.99132-.0693-3.43789.276-5.77748.96444-6.53371 3.38882-15.83885 5.9744-18.05226 3.92461-3.35969 3.85902-4.87628 13.37096-10.78483 3.88824-2.41527 11.43017-5.53848 14.58349-7.25332 10.7033.1433 22.40628 16.36849 14.02523 36.86546-10.41774 25.47795-39.29626 23.89445-46.48138 17.89716z" id="path114337"/></g><g id="g114338" data-transform="boob_left"><path id="path114338" d="m310.01513 284.36582c-18.22883.64939-43.18872-9.50226-43.60885-32.6691-.40267-22.20405 23.4946-35.96224 44.11446-35.52768 15.85705.69388 40.27927 12.68558 41.21064 36.04911.62601 15.7035-18.73175 31.32886-41.71625 32.14767z" class="areola"/></g></svg>