<svg viewBox="0 0 560 1e3"><g id="g114347" data-transform="boob_right"><path style="display:inline;fill-opacity:1;opacity:1;stroke-width:1" d="m205.99507 265.27606c-3.14693 2.1142-6.48782 4.97943-10.35737 7.90815-5.14842 3.89664-10.94384 7.95381-15.65804 10.97151-14.58684 9.33747-31.35436 19.35352-37.35466 27.356-5.51327 7.35293-7.77462 16.0937-9.11523 27.36523-.80904 6.80225-1.6652 18.37294.15982 30.12583.56813 3.65865 2.4699 10.48983 5.00322 16.64258 1.33573 3.24414 3.25316 6.70578 4.35947 8.53053 12.04989 6.82141 35.08686 12.41512 71.15327-.26378-.0281-.16946-2.37592-3.8749-4.1041-7.64694-1.92077-4.19242-3.61688-8.5945-4.12105-10.03241-.9086-2.59135-1.43095-4.88874-1.9619-7.58041-.60326-3.05829-1.63051-7.69562-1.67417-8.04462-.31309-2.50256-.43994-4.47139-.51769-7.00421-.0777-2.53283-.0386-5.07792.11524-7.62891.15383-2.55099.42104-5.10896.80273-7.66602.38169-2.55705.8766-5.11304 1.48242-7.66406s1.32418-5.09602 2.15039-7.62891c.82621-2.53288 1.75987-5.05399 2.80274-7.55664 1.04286-2.50264 2.19344-4.98695 3.44922-7.44726.60801-1.1912 4.87845-9.24095 10.23039-16.02057 2.42261-3.06887 4.91318-5.85702 5.26278-6.45774-7.6887-12.75271-17.82935-18.88616-22.10748-20.25735z" id="path114347"/></g><g id="g114348" data-transform="boob_left"><path id="path114348" d="m291.55976 396.71954c-33.1035-3.65147-88.37949-21.88-88.53667-43.74685-.0545-7.58455-.69917-15.20573 4.78491-31.20634 1.53489-4.47825 5.04756-13.06915 7.36408-18.29115 2.4414-5.50353 14.27804-19.88241 17.94039-24.09968 7.87896-9.0728 13.48441-18.52784 20.54893-23.86188 14.82364-11.19252 33.93669-15.19339 50.46445-14.47017 23.81525 1.04211 49.66902 6.29993 69.74273 30.57032 2.61733 3.16451 8.55772 12.88671 10.703 16.23787 2.68416 4.19295 9.85782 16.10177 11.39864 20.13285 1.61664 4.22943 5.72974 14.21317 5.68293 17.81526-.44925 34.56861-70.51226 75.28568-110.09339 70.91977z" class="areola"/></g></svg>