<svg viewBox="0 0 560 1e3"><path class="areola" d="m312.42799 247.06264c-4.05472.0556-10.68874-4.45699-10.60235-9.67977.0961-5.81169 6.963-9.87424 11.02042-10.00502 6.99907-.2256 11.8503 4.55846 11.75783 10.87864-.0861 5.88528-7.80898 8.7463-12.1759 8.80615z" id="path22"/><path class="shadow" d="m313.47573 239.66032c-1.94762-.0319-2.30525-.47307-2.84254-1.38769-.0692-.11498-.14074-.6753-.039-1.04629.26998-.9844 1.38054-1.82945 2.49788-1.77138 1.83776.0955 2.2692 2.11008 2.25662 2.11245-.19082.92279-.63028 2.09291-1.87298 2.09291z" id="path24"/><path id="path25" d="m313.47573 239.66032c-1.94762-.0319-2.40618-.60407-2.84254-1.38769-.0133.01-.14074-.6753-.039-1.04629.26998-.9844 1.53307-1.84755 2.49788-1.77138 1.78528.14096 2.2692 2.11008 2.25662 2.11245-.15647.78536-.63028 2.09291-1.87298 2.09291z" class="areola"/><path class="shadow" d="m311.35893 236.87262c.87662-.34085 1.71217.12006 2.25579.57658-.65277-.31849-1.48757-.75499-2.25579-.57658z" id="path26"/><path id="path28" d="m312.37165 236.86687c.50004-.43498.80129-.55077 1.55144-.47994-.70137.0247-1.0201.15274-1.55144.47994z" class="shadow"/><path class="areola" d="m242.38306 251.44001c-.18783-2.51175.13718-7.87248.92101-11.02776.62509-2.51624 1.71675-5.9148 2.20439-7.41153.13289-.3599.79763-1.95859.91075-2.25028 6.30087-1.60895 8.74419 6.43744 8.35647 11.50561-.74927 9.79421-10.80827 12.10998-12.39262 9.18396z" id="path30"/><path class="shadow" d="m246.84943 242.44113c-1.78297-.0319-2.11037-.47307-2.60223-1.38769-.0634-.11498-.12885-.6753-.0357-1.04629.24716-.9844 1.26383-1.82945 2.28672-1.77138 1.68239.0955 2.07736 2.11008 2.06584 2.11245-.17469.92279-.57699 2.09291-1.71464 2.09291z" id="path32"/><path id="path34" d="m246.84943 242.44113c-1.78297-.0319-2.20276-.60407-2.60223-1.38769-.0122.01-.12885-.6753-.0357-1.04629.24716-.9844 1.40347-1.84755 2.28672-1.77138 1.63435.14096 2.07736 2.11008 2.06584 2.11245-.14324.78536-.57699 2.09291-1.71464 2.09291z" class="areola"/><path class="shadow" d="m244.21552 240.06223c.80251-.34085 1.56743.12006 2.06509.57658-.59758-.31849-1.36181-.75499-2.06509-.57658z" id="path36"/><path id="path37" d="m245.14263 240.05648c.45777-.43498.73355-.55077 1.42028-.47994-.64208.0247-.93386.15274-1.42028.47994z" class="shadow"/></svg>